<?xml version="1.0" standalone="no"?>
<!DOCTYPE svg PUBLIC "-//W3C//DTD SVG 20010904//EN"
 "http://www.w3.org/TR/2001/REC-SVG-20010904/DTD/svg10.dtd">
<svg version="1.0" xmlns="http://www.w3.org/2000/svg"
 width="739.000000pt" height="415.000000pt" viewBox="0 0 739.000000 415.000000"
 preserveAspectRatio="xMidYMid meet">
<metadata>
Created by potrace 1.15, written by Peter Selinger 2001-2017
</metadata>
<g transform="translate(0.000000,415.000000) scale(0.100000,-0.100000)"
fill="#000000" stroke="none">
<path d="M3788 3682 c-68 -69 -168 -130 -269 -166 -124 -45 -214 -118 -262
-212 -16 -30 -19 -32 -97 -38 -215 -19 -366 -132 -410 -308 l-12 -45 -82 -21
c-209 -51 -322 -159 -361 -341 -19 -90 -20 -135 -2 -128 113 42 261 54 328 25
86 -37 155 -133 178 -248 20 -102 31 -312 31 -600 l0 -287 93 18 c142 27 273
39 431 39 157 0 269 -16 337 -49 24 -12 44 -21 46 -21 2 0 3 168 3 373 l0 372
-89 43 c-209 100 -321 266 -321 472 1 280 174 486 448 531 173 29 387 -69 491
-223 79 -118 111 -294 78 -425 -49 -190 -159 -311 -335 -368 l-52 -17 0 -374
c0 -206 4 -374 9 -374 5 0 29 9 55 20 154 69 492 66 834 -6 l22 -4 0 408 c0
233 4 432 10 462 22 117 83 205 169 243 72 32 226 23 336 -19 21 -9 20 34 -5
130 -32 128 -92 215 -195 286 -43 29 -137 65 -197 75 -33 5 -38 10 -53 54 -21
64 -68 138 -119 184 -79 73 -218 127 -328 127 -46 0 -48 2 -69 42 -30 60 -105
128 -187 171 -38 20 -75 37 -82 37 -7 0 -49 17 -94 38 -83 40 -170 109 -195
156 -8 14 -17 26 -20 26 -3 -1 -32 -27 -63 -58z"/>
<path d="M3614 2938 c-3 -5 2 -15 12 -23 18 -13 17 -15 -13 -47 -18 -19 -33
-37 -33 -40 0 -3 15 -5 33 -4 30 1 32 -1 35 -39 2 -21 -2 -58 -9 -82 -10 -36
-9 -46 4 -66 16 -24 124 -87 150 -87 19 0 26 -22 22 -75 -2 -36 -4 -40 -26
-35 -44 9 -144 5 -217 -9 -87 -17 -102 -10 -78 37 21 40 20 95 -1 135 l-18 32
-7 -50 c-4 -27 -10 -69 -14 -91 -7 -52 6 -79 54 -103 20 -11 50 -33 66 -50
l30 -31 -36 0 c-33 0 -56 -19 -41 -34 4 -3 68 -6 143 -6 l138 0 6 -31 c3 -17
6 -252 6 -521 0 -436 2 -491 16 -514 l17 -25 18 31 c18 28 19 68 21 681 l3
652 68 20 c37 11 70 18 73 14 3 -3 16 -59 29 -124 35 -179 49 -203 114 -203
56 0 91 31 91 81 0 53 -18 85 -95 171 -64 70 -76 93 -54 100 21 7 -47 77 -96
100 -42 19 -72 23 -182 26 l-133 4 0 64 c0 35 -6 73 -12 85 -11 17 -10 22 5
33 9 7 17 16 17 20 0 12 -23 6 -37 -11 -13 -17 -14 -16 -8 4 5 19 2 22 -25 21
-17 -1 -33 -5 -36 -10z"/>
<path d="M2420 2305 c0 -11 -11 -15 -40 -15 l-40 0 -2 -57 c-1 -32 -1 -69 0
-83 1 -17 -1 -21 -7 -12 -4 7 -6 48 -3 90 3 53 1 74 -6 67 -6 -5 -15 -75 -20
-155 l-10 -145 1 147 c2 172 -13 173 -21 1 -3 -62 -9 -116 -15 -120 -10 -6 -5
131 8 232 5 33 4 36 -5 17 -13 -31 -32 -241 -25 -292 3 -25 0 -40 -8 -43 -6
-2 -3 -3 8 -2 11 1 31 -1 45 -4 19 -6 9 -9 -41 -14 -36 -4 -90 -16 -120 -26
-53 -19 -53 -20 -4 -36 11 -3 13 -13 8 -36 -6 -32 -6 -32 30 -26 49 8 57 -5
10 -20 l-38 -13 50 2 c28 1 57 -1 65 -5 14 -6 78 -15 110 -17 11 0 11 -3 -4
-11 -13 -8 -24 -8 -41 1 -16 9 -32 9 -60 1 -21 -6 -42 -8 -47 -5 -4 3 -11 -2
-14 -11 -4 -9 -13 -14 -21 -11 -8 3 -11 1 -8 -4 3 -6 2 -10 -4 -10 -5 0 -11 4
-13 9 -1 5 -12 3 -22 -5 -18 -12 -18 -17 -6 -54 9 -27 16 -36 21 -28 6 9 10 8
14 -5 6 -15 9 -14 26 6 l19 22 6 -22 c6 -24 15 -28 28 -16 4 4 18 9 31 10 18
3 25 -1 25 -14 0 -13 3 -14 12 -5 16 16 25 15 25 -3 0 -8 -8 -15 -18 -15 -10
0 -21 -4 -24 -10 -3 -5 -1 -10 4 -10 6 0 11 -4 11 -9 0 -12 -48 -20 -54 -9 -2
5 -3 3 -2 -4 2 -7 12 -13 24 -12 12 0 19 -3 16 -7 -2 -4 6 -10 18 -12 13 -2
-18 -5 -69 -6 -50 0 -94 -4 -96 -8 -3 -5 32 -7 78 -5 49 1 86 -2 90 -8 4 -6
-25 -10 -84 -10 -54 0 -91 -4 -91 -10 0 -5 7 -10 15 -10 8 0 15 -3 15 -6 0
-19 -24 -84 -32 -84 -12 0 -10 -28 2 -32 10 -3 -23 -349 -36 -369 -3 -5 0 -9
5 -9 6 0 11 2 11 4 0 21 42 351 45 354 21 21 21 -83 0 -253 -5 -40 -4 -47 6
-38 8 8 16 61 21 134 4 67 11 125 14 128 3 3 10 -2 15 -12 6 -9 17 -17 25 -17
13 0 14 -11 10 -67 l-6 -68 33 37 c28 32 45 40 147 68 63 17 120 33 127 35 6
2 9 13 6 24 -3 11 3 33 12 49 13 22 16 39 10 68 -10 52 -13 243 -4 274 4 14
10 32 13 41 5 10 -1 19 -19 27 -22 10 -25 18 -25 62 0 44 3 52 24 60 13 5 26
13 29 17 9 15 -12 213 -29 271 -27 96 -134 228 -134 167z"/>
<path d="M5279 2313 c-1 -5 -1 -11 0 -15 0 -4 -6 -5 -13 -2 -17 7 -89 -111
-105 -172 -13 -48 -31 -245 -24 -257 3 -5 15 -12 28 -17 19 -7 24 -17 26 -61
4 -49 2 -52 -23 -61 -32 -11 -31 -9 -17 -45 20 -49 28 -93 17 -93 -6 0 -9 -38
-8 -92 0 -51 -2 -109 -5 -129 -5 -26 -3 -39 9 -48 9 -8 16 -26 16 -42 0 -25 5
-30 43 -39 132 -35 201 -62 221 -87 50 -63 48 -63 42 10 -4 54 -2 67 9 67 8 0
19 9 25 21 7 11 14 19 16 16 2 -2 8 -58 13 -125 6 -67 15 -129 21 -139 9 -14
10 -7 5 32 -14 120 -18 265 -7 265 6 0 13 -19 17 -42 8 -63 35 -301 35 -315 0
-7 4 -13 9 -13 5 0 7 8 5 18 -2 9 -13 94 -24 187 l-20 170 20 17 c20 16 26 29
13 27 -22 -4 -31 4 -37 29 -4 15 -9 35 -12 45 -4 11 0 17 10 17 9 0 16 5 16
10 0 6 -37 10 -91 10 -54 0 -88 4 -84 9 3 6 42 10 86 9 44 0 83 3 86 6 4 3
-38 6 -93 7 -90 1 -96 2 -63 13 30 9 34 13 23 24 -7 6 -21 12 -31 13 -11 0
-13 3 -5 6 19 8 14 21 -10 26 -23 4 -23 4 -1 6 12 0 24 10 28 22 5 16 10 18
21 8 8 -6 14 -8 14 -3 0 4 5 3 12 -4 17 -17 25 -15 31 8 3 11 12 20 21 20 9 0
16 -8 16 -20 0 -11 5 -20 10 -20 6 0 10 8 10 18 0 12 2 14 8 4 6 -9 13 0 22
28 12 37 12 42 -6 55 -10 8 -29 14 -41 12 -12 -2 -24 2 -27 10 -3 8 -10 12
-14 9 -4 -3 -27 0 -51 5 -28 6 -47 6 -55 0 -7 -6 -24 -7 -42 -2 -27 7 -24 8
26 15 30 4 63 8 73 8 9 -1 17 3 17 7 0 4 26 6 58 5 57 -3 57 -3 20 9 -53 17
-56 26 -8 20 39 -6 42 -4 40 18 -4 41 -1 49 19 49 11 0 22 4 25 8 7 12 -87 40
-164 48 -58 7 -62 8 -34 16 18 4 35 18 42 32 12 26 7 36 -17 36 -13 0 -16 15
-19 83 -1 45 -4 109 -7 142 -4 49 -3 54 5 30 6 -16 13 -78 17 -137 3 -60 10
-108 15 -108 10 0 10 23 -2 138 -13 121 -19 142 -39 142 -14 0 -16 -16 -15
-142 l2 -143 -9 140 c-5 77 -13 143 -18 148 -6 6 -9 -10 -9 -38 0 -26 -3 -49
-6 -52 -3 -4 -6 15 -6 40 l0 47 -40 0 c-31 0 -38 3 -34 15 4 9 0 15 -10 15 -9
0 -17 -3 -17 -7z"/>
<path d="M4080 1231 c-12 -9 -10 -11 11 -11 29 0 68 -25 56 -36 -4 -5 -28 -16
-53 -25 -59 -23 -139 -78 -155 -106 -6 -12 -9 -29 -5 -39 6 -15 8 -15 19 -2
19 23 94 78 106 78 6 0 11 -13 11 -28 0 -24 -6 -31 -40 -45 -45 -18 -67 -55
-50 -88 13 -23 34 -23 80 -1 49 24 62 54 56 134 -4 61 -3 68 16 74 27 8 34 -5
48 -85 21 -124 21 -123 52 -98 14 11 13 21 -7 109 l-22 97 49 11 c55 11 111
13 156 4 21 -4 31 -13 35 -30 4 -23 3 -23 -59 -17 -103 10 -144 -36 -92 -102
20 -25 25 -27 77 -22 31 3 65 7 76 9 14 2 21 -3 23 -19 3 -17 10 -23 28 -23
23 0 24 3 18 43 -3 23 -10 64 -15 91 -5 27 -7 52 -4 55 15 14 228 -23 244 -43
5 -6 12 -21 15 -33 6 -18 4 -22 -8 -17 -9 4 -23 1 -31 -6 -12 -10 -20 -7 -46
14 -33 28 -86 35 -107 14 -35 -35 16 -119 80 -133 30 -7 54 4 30 12 -7 3 -25
15 -40 28 -23 20 -24 25 -13 39 21 25 50 19 69 -14 20 -35 42 -39 42 -9 0 39
33 16 55 -40 23 -56 55 -88 55 -54 0 10 -11 54 -25 98 -32 102 -32 108 -1 94
19 -9 32 -33 59 -117 31 -92 57 -135 73 -119 2 2 -11 51 -30 108 -18 57 -29
107 -24 110 21 13 -7 36 -65 52 -190 53 -246 61 -442 62 -145 0 -192 3 -200
13 -14 17 -86 26 -105 13z"/>
<path d="M3149 1131 c-31 -5 -61 -11 -68 -15 -28 -17 -5 -26 68 -26 65 0 80
-3 85 -17 11 -28 -19 -46 -86 -51 -61 -4 -88 -15 -88 -33 0 -5 11 -9 25 -9 14
0 25 -4 25 -8 0 -16 52 -33 117 -39 54 -5 63 -4 63 11 0 11 -9 16 -32 17 -18
1 -44 4 -58 8 -24 7 -23 9 23 31 52 25 72 50 62 80 -6 18 -1 20 54 20 l61 0 0
-90 c0 -88 1 -91 26 -100 14 -6 27 -10 30 -10 2 0 4 43 4 95 l0 95 33 0 c38 0
139 -46 185 -84 24 -21 32 -36 32 -62 l0 -34 -48 50 c-40 41 -54 50 -83 50
-44 0 -59 -15 -59 -59 0 -47 60 -104 135 -127 50 -16 55 -20 55 -46 0 -28 25
-78 40 -78 4 0 5 52 2 115 -3 82 -2 115 7 115 6 0 11 -4 11 -10 0 -5 5 -10 10
-10 38 0 -30 96 -102 145 -87 58 -161 77 -328 80 -80 2 -170 0 -201 -4z"/>
<path d="M5235 1119 c-4 -6 -5 -12 -4 -13 2 -1 37 -24 77 -51 40 -26 71 -49
70 -50 -2 -2 -46 8 -98 21 -52 13 -101 24 -109 24 -20 0 3 -25 37 -39 26 -11
78 -78 69 -88 -15 -15 -87 -13 -131 4 -53 20 -74 44 -31 36 50 -10 64 27 26
71 -35 41 -184 97 -205 76 -14 -14 32 -70 59 -70 17 0 23 4 19 14 -8 21 30 9
52 -15 22 -25 13 -33 -36 -34 -22 0 -40 -1 -40 -2 0 -22 34 -55 86 -83 58 -31
75 -35 141 -35 68 -1 76 -3 96 -27 20 -24 97 -56 97 -40 0 4 -20 38 -45 77
-24 38 -42 71 -41 73 2 2 21 -1 43 -7 33 -9 47 -23 101 -100 49 -71 68 -91 92
-96 18 -4 33 -5 35 -3 2 2 -18 37 -45 78 -49 73 -60 97 -40 85 13 -8 13 1 0
26 -6 10 -19 19 -28 19 -20 0 -53 23 -148 103 -68 57 -87 66 -99 46z"/>
<path d="M2865 1102 c-120 -7 -374 -67 -488 -114 -51 -21 -86 -42 -99 -60 -18
-26 -14 -39 8 -19 25 23 234 80 234 64 -1 -21 -20 -31 -73 -37 -100 -11 -235
-95 -273 -168 -13 -26 -13 -29 2 -35 21 -8 86 9 174 44 36 15 76 28 90 28 14
1 37 3 51 3 42 3 59 24 89 112 16 49 37 91 48 98 28 18 187 28 197 12 14 -22
-28 -50 -95 -61 -60 -10 -96 -31 -85 -49 3 -4 16 -5 30 -2 16 3 33 -2 46 -14
39 -35 199 -14 199 26 0 17 -4 18 -29 9 -16 -6 -44 -9 -63 -7 l-33 3 47 28
c51 30 65 55 48 87 -9 17 -8 20 8 20 17 0 42 17 42 30 0 6 -12 7 -75 2z"/>
<path d="M4495 654 c-174 -9 -354 -48 -450 -96 -57 -29 -128 -87 -159 -130
-19 -27 -26 -48 -26 -84 l0 -47 34 44 c72 95 158 148 316 195 95 29 96 29 375
29 305 0 405 -10 690 -66 186 -37 502 -116 680 -169 73 -22 137 -40 140 -40 3
0 5 17 3 37 -3 34 -7 38 -43 49 -416 123 -588 166 -880 219 -220 41 -524 67
-680 59z"/>
<path d="M2931 639 c-336 -24 -725 -107 -1286 -273 -38 -11 -40 -14 -37 -46 2
-19 5 -36 7 -38 1 -2 63 15 136 38 74 23 222 63 329 90 669 168 1157 203 1461
104 120 -39 174 -72 256 -162 l53 -57 0 43 c0 106 -142 216 -346 268 -157 39
-338 50 -573 33z"/>
</g>
</svg>
